<?xml version="1.0" encoding="utf-8"?>
<!-- Generator: Adobe Illustrator 16.0.0, SVG Export Plug-In . SVG Version: 6.00 Build 0)  -->
<!DOCTYPE svg PUBLIC "-//W3C//DTD SVG 1.1//EN" "http://www.w3.org/Graphics/SVG/1.1/DTD/svg11.dtd">
<svg version="1.1" id="Layer_1" xmlns="http://www.w3.org/2000/svg" xmlns:xlink="http://www.w3.org/1999/xlink" x="0px" y="0px"
	 width="369.885px" height="72px" viewBox="0 0 369.885 72" enable-background="new 0 0 369.885 72" xml:space="preserve">
<g>
	<rect x="47.992" y="29.024" fill="#FFFFFF" width="8.004" height="27.07"/>
	<path fill="#FFFFFF" d="M16.023,18.092h15.795c5.693,0,12.621,4.459,12.621,12.678c0,7.573-6.445,12.677-12.621,12.677h-7.522
		v12.568h-8.272V18.092z M31.334,35.926c1.664,0,4.834-1.074,4.834-5.156c0-4.137-3.17-5.158-4.834-5.158h-7.038v10.314H31.334z"/>
	<rect x="47.992" y="16.014" fill="#FFFFFF" width="8.004" height="8.002"/>
	<rect x="232.76" y="16.014" fill="#FFFFFF" width="8.002" height="8.002"/>
	<path fill="#FFFFFF" d="M67.826,41.781l-9.292-12.835h8.703l5.05,7.139l5.049-7.139h8.701l-9.291,12.835l10.258,14.234h-8.648
		l-6.068-8.432l-6.07,8.432h-8.649L67.826,41.781z"/>
	<path fill="#FFFFFF" d="M85.391,42.425c0-8.649,6.236-14.181,14.666-14.181c8.383,0,13.914,6.123,13.914,13.755
		c0,0,0,1.34-0.105,2.576H93.396c0.162,3.225,2.955,5.318,7.199,5.318c2.791,0,4.727-0.859,6.607-2.633l4.674,4.459
		c-3.598,3.705-7.52,4.941-11.656,4.941c-8.811,0-14.83-5.533-14.83-14.021V42.425z M105.912,39.365c0-2.47-2.631-4.513-5.855-4.513
		c-3.49,0-6.338,1.988-6.553,4.513H105.912z"/>
	<path fill="#FFFFFF" d="M116.578,18.575h8.005v27.397c0,2.471,0.912,3.49,3.115,3.49c0.593,0,1.343-0.053,1.933-0.213v7.088
		c-0.805,0.217-2.364,0.381-3.814,0.381c-3.814,0-9.239-1.184-9.239-9.514V18.575z"/>
	<path fill="#FFFFFF" d="M132.725,36.196h-4.458v-7.25h4.458v-0.754c0-4.461,1.072-6.717,3.168-8.385
		c2.258-1.879,5.105-1.986,7.468-1.986c1.127,0,2.576,0.162,3.223,0.271v6.66c-0.701-0.27-1.611-0.27-2.416-0.27
		c-2.525,0-3.708,0.914-3.708,3.225v1.238h5.423v7.25h-5.423v19.819h-7.734V36.196z"/>
	<path fill="#FFFFFF" d="M161.176,28.135c8.328,0,15.041,6.342,15.041,14.347c0,8.004-6.713,14.344-15.041,14.344
		c-8.381,0-15.041-6.34-15.041-14.344C146.135,34.477,152.795,28.135,161.176,28.135z M161.176,49.572
		c3.92,0,7.037-3.115,7.037-7.09c0-3.924-3.117-7.093-7.037-7.093c-3.975,0-7.037,3.169-7.037,7.093
		C154.139,46.457,157.201,49.572,161.176,49.572z"/>
	<path fill="#FFFFFF" d="M178.783,28.946h8.004v3.705c1.234-2.74,4.139-4.299,7.844-4.299c0.752,0,1.668,0.105,2.094,0.162v7.52
		c-0.752-0.162-1.662-0.27-2.686-0.27c-4.564,0-7.252,2.634-7.252,7.038v13.213h-8.004V28.946z"/>
	<path fill="#FFFFFF" d="M210.158,28.458c4.137,0,7.305,1.666,8.059,4.031V18.575h8.004v27.935c0,2.203,0.59,3.008,1.988,3.008
		c0.371,0,0.965-0.055,1.344-0.107v6.662c-0.809,0.266-2.311,0.428-3.602,0.428c-1.453,0-3.061-0.215-4.402-0.965
		c-0.863-0.539-1.938-1.396-2.42-2.902c-1.557,2.309-4.242,3.922-8.971,3.922c-7.684,0-13.434-6.178-13.434-14.072
		C196.725,34.688,202.475,28.458,210.158,28.458z M211.607,49.25c3.922,0,7.094-2.955,7.094-6.768c0-3.816-3.172-6.771-7.094-6.771
		c-3.867,0-6.877,2.954-6.877,6.771C204.73,46.294,207.74,49.25,211.607,49.25z"/>
	<rect x="232.76" y="28.946" fill="#FFFFFF" width="8.002" height="27.069"/>
	<path fill="#FFFFFF" d="M245.107,28.946h8.008v3.381c1.129-2.363,4.137-3.975,7.896-3.975c6.658,0,10.367,4.244,10.367,11.228
		v16.436h-8.006V40.546c0-3.115-1.719-5.104-4.938-5.104c-3.066,0-5.32,2.202-5.32,5.372v15.201h-8.008V28.946z"/>
	<path fill="#FFFFFF" d="M275.861,28.946h8.002v3.381c1.127-2.363,4.135-3.975,7.896-3.975c6.66,0,10.367,4.244,10.367,11.228
		v16.436h-8.004V40.546c0-3.115-1.719-5.104-4.943-5.104c-3.061,0-5.316,2.202-5.316,5.372v15.201h-8.002V28.946z"/>
	<path fill="#FFFFFF" d="M304.709,42.425c0-8.649,6.23-14.181,14.664-14.181c8.381,0,13.914,6.123,13.914,13.755
		c0,0,0,1.34-0.109,2.576h-20.467c0.162,3.225,2.955,5.318,7.197,5.318c2.793,0,4.73-0.859,6.609-2.633l4.674,4.459
		c-3.6,3.705-7.521,4.941-11.656,4.941c-8.812,0-14.826-5.533-14.826-14.021V42.425z M325.229,39.365
		c0-2.47-2.635-4.513-5.855-4.513c-3.494,0-6.344,1.988-6.555,4.513H325.229z"/>
	<path fill="#FFFFFF" d="M335.92,28.946h8.004v3.705c1.234-2.74,4.137-4.299,7.842-4.299c0.752,0,1.666,0.105,2.096,0.162v7.52
		c-0.75-0.162-1.664-0.27-2.684-0.27c-4.568,0-7.254,2.634-7.254,7.038v13.213h-8.004V28.946z"/>
</g>
</svg>
